<?xml version="1.0" standalone="no"?>
<!DOCTYPE svg PUBLIC "-//W3C//DTD SVG 20010904//EN"
 "http://www.w3.org/TR/2001/REC-SVG-20010904/DTD/svg10.dtd">
<svg version="1.0" xmlns="http://www.w3.org/2000/svg"
 width="120.000000pt" height="120.000000pt" viewBox="0 0 120.000000 120.000000"
 preserveAspectRatio="xMidYMid meet">
<metadata>
Created by potrace 1.16, written by Peter Selinger 2001-2019
</metadata>
<g transform="translate(0.000000,120.000000) scale(0.100000,-0.100000)"
fill="#00000" stroke="none">
<path d="M -1467 -1 v -1260 h 640 l 0 57 l -57 -3 c -74 -5 -117 17 -150 78 c -13 24 -37 56 -54 71 c -34 33 -36 38 -9 38 c 12 0 20 -7 20 -16 c 0 -10 6 -14 14 -11 c 10 4 13 1 9 -9 c -3 -10 2 -14 18 -14 c 18 0 20 -3 10 -9 c -16 -11 -4 -34 14 -27 c 9 3 11 -2 7 -16 c -4 -18 -2 -20 21 -14 c 20 5 25 3 21 -8 c -9 -23 17 -31 33 -11 c 12 17 13 17 13 2 c 0 -11 8 -17 21 -17 c 15 0 19 5 15 15 c -3 8 -1 15 4 15 c 6 0 10 -7 10 -15 c 0 -8 7 -15 15 -15 c 8 0 15 8 15 18 c 0 10 10 39 23 64 l 23 46 l -59 13 c -136 28 -210 123 -211 268 c -1 66 3 82 27 124 c 23 39 27 55 22 86 c -7 40 9 121 24 121 c 18 0 78 -25 113 -46 c 30 -19 42 -22 70 -14 c 18 6 71 10 118 10 c 47 0 100 -4 118 -10 c 28 -8 40 -5 70 14 c 35 21 95 46 113 46 c 15 0 31 -81 24 -121 c -5 -31 -1 -47 22 -86 c 24 -42 28 -58 27 -123 c -1 -147 -65 -231 -203 -266 l -68 -18 l 18 -30 c 15 -25 19 -51 11 -190 l 635 -1 v 1264 -1z"/>
</g>
</svg>
