<?xml version="1.0" encoding="utf-8"?>
<!-- Generator: Adobe Illustrator 25.2.1, SVG Export Plug-In . SVG Version: 6.00 Build 0)  -->
<svg version="1.1" id="Camada_1" xmlns="http://www.w3.org/2000/svg" xmlns:xlink="http://www.w3.org/1999/xlink" x="0px" y="0px"
	 viewBox="0 0 1920 1080" style="enable-background:new 0 0 1920 1080;" xml:space="preserve">
<style type="text/css">
	.st0{fill:#272727;}
</style>
<g>
	<path class="st0" d="M1100,400c-19.3-19.3-50.5-19.3-69.8,0L960,470.2L889.8,400c-19.3-19.3-50.5-19.3-69.8,0s-19.3,50.5,0,69.8
		l70.2,70.2L820,610.2c-19.3,19.3-19.3,50.5,0,69.8c9.6,9.6,22.3,14.5,34.9,14.5s25.3-4.8,34.9-14.5l70.2-70.2l70.2,70.2
		c9.6,9.6,22.3,14.5,34.9,14.5s25.3-4.8,34.9-14.5c19.3-19.3,19.3-50.5,0-69.8l-70.2-70.2l70.2-70.2
		C1119.3,450.5,1119.3,419.2,1100,400z"/>
</g>
</svg>
