<?xml version="1.0" encoding="utf-8"?>
<!-- Generator: Adobe Illustrator 25.2.1, SVG Export Plug-In . SVG Version: 6.00 Build 0)  -->
<svg version="1.1" id="Camada_1" xmlns="http://www.w3.org/2000/svg" xmlns:xlink="http://www.w3.org/1999/xlink" x="0px" y="0px"
	 viewBox="0 0 1920 1080" style="enable-background:new 0 0 1920 1080;" xml:space="preserve">
<style type="text/css">
	.st0{fill:#ffff;}
</style>
<g>
	<path class="st0" d="M997.6,504.5c-4.9-4.9-12.8-4.9-17.7,0l-17.8,17.8l-17.8-17.8c-4.9-4.9-12.8-4.9-17.7,0s-4.9,12.8,0,17.7
		l17.8,17.8l-17.8,17.8c-4.9,4.9-4.9,12.8,0,17.7c2.4,2.4,5.6,3.7,8.8,3.7s6.4-1.2,8.8-3.7l17.8-17.8l17.8,17.8
		c2.4,2.4,5.6,3.7,8.8,3.7s6.4-1.2,8.8-3.7c4.9-4.9,4.9-12.8,0-17.7L979.9,540l17.8-17.8C1002.5,517.3,1002.5,509.4,997.6,504.5z"/>
	<path class="st0" d="M1440.6,540l17.8-17.8c4.9-4.9,4.9-12.8,0-17.7c-4.9-4.9-12.8-4.9-17.7,0l-17.8,17.8l-17.8-17.8
		c-4.9-4.9-12.8-4.9-17.7,0c-4.9,4.9-4.9,12.8,0,17.7l17.8,17.8l-17.8,17.8c-4.9,4.9-4.9,12.8,0,17.7c2.4,2.4,5.6,3.7,8.8,3.7
		s6.4-1.2,8.8-3.7l17.8-17.8l17.8,17.8c2.4,2.4,5.6,3.7,8.8,3.7s6.4-1.2,8.8-3.7c4.9-4.9,4.9-12.8,0-17.7L1440.6,540z"/>
	<path class="st0" d="M532.5,504.5c-4.9-4.9-12.8-4.9-17.7,0L497,522.3l-17.8-17.8c-4.9-4.9-12.8-4.9-17.7,0
		c-4.9,4.9-4.9,12.8,0,17.7l17.8,17.8l-17.8,17.8c-4.9,4.9-4.9,12.8,0,17.7c2.4,2.4,5.6,3.7,8.8,3.7s6.4-1.2,8.8-3.7l17.8-17.8
		l17.8,17.8c2.4,2.4,5.6,3.7,8.8,3.7s6.4-1.2,8.8-3.7c4.9-4.9,4.9-12.8,0-17.7L514.8,540l17.8-17.8
		C537.4,517.3,537.4,509.4,532.5,504.5z"/>
	<path class="st0" d="M808.4,518.1c-0.7-0.1-67.6-10-93.4-73.5c25-25.2,55.7-56.7,84.7-87.9c4.4-4.8,4.5-12.1,0.1-16.9
		s-11.7-5.5-16.9-1.5c-24.5,18.9-46.1,25.1-64,18.6c-19.6-7.2-33.1-28.6-41-45.3c-9.1-19.4-13.1-37.2-13.1-37.3
		c-1.3-6.3-7.2-10.5-13.5-9.8c-6.4,0.7-11.2,6-11.2,12.4v526.4c0,5.7,3.8,10.6,9.3,12.1c1.1,0.3,2.1,0.4,3.2,0.4
		c4.4,0,8.6-2.4,10.9-6.4l154.1-272.7c2-3.6,2.2-8,0.3-11.7C816,521.2,812.5,518.6,808.4,518.1z M665.1,340.2
		c10.7,17.1,25.5,32.9,45.2,40.2c9.3,3.4,18.9,4.7,28.9,3.9c-29.2,30.2-56.4,57.5-74.1,75L665.1,340.2L665.1,340.2z M665.1,755.6
		V494.3c5-4.9,16.2-15.9,31.1-30.7c13.3,26.8,34.5,48.4,62.2,63.1c10.9,5.8,21.2,9.6,29.3,12.1L665.1,755.6z"/>
	<path class="st0" d="M1194.6,301.8l63.5,70.9c4.6,5.1,12.5,5.6,17.7,1c5.1-4.6,5.6-12.5,1-17.7l-78.5-87.5c-3.1-3.5-8-4.9-12.5-3.7
		c-4.5,1.2-8,4.9-9,9.5c-0.1,0.7-15,67.4-67.1,111.5c-3.5,2.9-5.1,7.5-4.2,11.9l78.4,408v0.1c0,0.2,0.1,0.4,0.1,0.6
		c0,0.2,0.1,0.4,0.1,0.5c0.1,0.2,0.1,0.3,0.2,0.5s0.1,0.4,0.2,0.6c0.1,0.1,0.1,0.3,0.2,0.4c0.1,0.2,0.2,0.5,0.3,0.7
		c0.1,0.1,0.1,0.2,0.2,0.3c0.1,0.2,0.3,0.5,0.4,0.7c0.1,0.1,0.1,0.2,0.2,0.3c0.2,0.2,0.3,0.4,0.5,0.6c0.1,0.1,0.1,0.2,0.2,0.3
		c0.2,0.2,0.3,0.4,0.5,0.6c0.1,0.1,0.2,0.2,0.3,0.3c0.2,0.2,0.4,0.4,0.6,0.5c0.2,0.2,0.4,0.3,0.6,0.5c0.2,0.1,0.3,0.3,0.5,0.4
		c0.2,0.1,0.3,0.2,0.5,0.3s0.3,0.2,0.5,0.3s0.3,0.2,0.5,0.3s0.4,0.2,0.6,0.3s0.3,0.1,0.5,0.2c0.2,0.1,0.5,0.2,0.7,0.2
		c0.1,0,0.3,0.1,0.4,0.1c0.3,0.1,0.6,0.2,0.9,0.2c0.1,0,0.1,0,0.2,0l0,0c0.4,0.1,0.7,0.1,1.1,0.2l0,0c0.4,0,0.8,0.1,1.1,0.1l0,0l0,0
		c0.4,0,0.8,0,1.1-0.1l0,0c0.4,0,0.7-0.1,1.1-0.2l0,0c0.1,0,0.1,0,0.2,0c0.3-0.1,0.6-0.1,0.9-0.2c0.1,0,0.3-0.1,0.4-0.1
		c0.2-0.1,0.5-0.2,0.7-0.2c0.2-0.1,0.3-0.1,0.5-0.2c0.2-0.1,0.4-0.2,0.6-0.3s0.3-0.2,0.5-0.3s0.3-0.2,0.5-0.3s0.3-0.2,0.5-0.3
		s0.3-0.3,0.5-0.4c0.2-0.2,0.4-0.3,0.6-0.5s0.4-0.3,0.6-0.5c0.1-0.1,0.2-0.2,0.3-0.3c0.2-0.2,0.4-0.4,0.5-0.6
		c0.1-0.1,0.2-0.2,0.2-0.3c0.2-0.2,0.3-0.4,0.5-0.6c0.1-0.1,0.1-0.2,0.2-0.3c0.1-0.2,0.3-0.4,0.4-0.7c0.1-0.1,0.1-0.2,0.2-0.3
		c0.1-0.2,0.2-0.4,0.3-0.7c0.1-0.1,0.1-0.3,0.2-0.4c0.1-0.2,0.2-0.4,0.2-0.6c0.1-0.2,0.1-0.3,0.2-0.5s0.1-0.4,0.1-0.5
		c0.1-0.2,0.1-0.4,0.1-0.6v-0.1l69.3-360.4c1.3-6.8-3.1-13.3-9.9-14.6c-6.8-1.3-13.3,3.1-14.6,9.9l-57,296.5L1131.1,400
		C1167.1,367.3,1185.8,326.6,1194.6,301.8z"/>
</g>
</svg>
