<?xml version="1.0" encoding="utf-8"?>
<!-- Generator: Adobe Illustrator 25.2.1, SVG Export Plug-In . SVG Version: 6.00 Build 0)  -->
<svg version="1.1" id="Camada_1" xmlns="http://www.w3.org/2000/svg" xmlns:xlink="http://www.w3.org/1999/xlink" x="0px" y="0px"
	 viewBox="0 0 1920 1080" style="enable-background:new 0 0 1920 1080;" xml:space="preserve">
<style type="text/css">
	.st0{fill:#623CEA;}
</style>
<g>
	<path class="st0" d="M803.1,522.2c-2.4-2.4-6.4-2.4-8.9,0l-8.9,8.9l-8.9-8.9c-2.4-2.4-6.4-2.4-8.9,0c-2.4,2.4-2.4,6.4,0,8.9
		l8.9,8.9l-8.9,8.9c-2.4,2.4-2.4,6.4,0,8.9c1.2,1.2,2.8,1.8,4.4,1.8c1.6,0,3.2-0.6,4.4-1.8l8.9-8.9l8.9,8.9c1.2,1.2,2.8,1.8,4.4,1.8
		c1.6,0,3.2-0.6,4.4-1.8c2.4-2.4,2.4-6.4,0-8.9L794,540l8.9-8.9C805.5,528.7,805.5,524.7,803.1,522.2z"/>
	<path class="st0" d="M1887.7,540l8.9-8.9c2.4-2.4,2.4-6.4,0-8.9c-2.4-2.4-6.4-2.4-8.9,0l-8.9,8.9l-8.9-8.9c-2.4-2.4-6.4-2.4-8.9,0
		c-2.4,2.4-2.4,6.4,0,8.9l8.9,8.9l-8.9,8.9c-2.4,2.4-2.4,6.4,0,8.9c1.2,1.2,2.8,1.8,4.4,1.8s3.2-0.6,4.4-1.8l8.9-8.9l8.9,8.9
		c1.2,1.2,2.8,1.8,4.4,1.8s3.2-0.6,4.4-1.8c2.4-2.4,2.4-6.4,0-8.9L1887.7,540z"/>
	<path class="st0" d="M58.9,522.2c-2.4-2.4-6.4-2.4-8.9,0l-8.9,8.9l-8.9-8.9c-2.4-2.4-6.4-2.4-8.9,0c-2.4,2.4-2.4,6.4,0,8.9l8.9,8.9
		l-8.9,8.9c-2.4,2.4-2.4,6.4,0,8.9c1.2,1.2,2.8,1.8,4.4,1.8s3.2-0.6,4.4-1.8l8.9-8.9l8.9,8.9c1.2,1.2,2.8,1.8,4.4,1.8
		c1.6,0,3.2-0.6,4.4-1.8c2.4-2.4,2.4-6.4,0-8.9L50,540l8.9-8.9C61.4,528.7,61.4,524.7,58.9,522.2z"/>
	<path class="st0" d="M198,529c-0.1,0-9.2-1.4-19.6-7c-12.8-6.9-22-16.9-27.2-29.8c12.5-12.6,27.9-28.4,42.4-44
		c2.2-2.4,2.2-6.1,0-8.5s-5.9-2.7-8.4-0.7c-12.3,9.5-23.1,12.6-32.1,9.3c-9.8-3.6-16.6-14.3-20.5-22.7c-4.6-9.7-6.5-18.6-6.6-18.7
		c-0.7-3.1-3.6-5.2-6.8-4.9c-3.2,0.3-5.6,3-5.6,6.2v263.6c0,2.8,1.9,5.3,4.7,6.1c0.5,0.1,1.1,0.2,1.6,0.2c2.2,0,4.3-1.2,5.4-3.2
		l77.2-136.6c1-1.8,1.1-4,0.2-5.8C201.8,530.6,200,529.3,198,529z M126.2,439.9c5.4,8.5,12.7,16.5,22.6,20.1c4.6,1.7,9.5,2.4,14.5,2
		c-14.6,15.1-28.2,28.8-37.1,37.5C126.2,499.5,126.2,439.9,126.2,439.9z M126.2,648V517.1c2.5-2.5,8.1-8,15.6-15.4
		c6.6,13.4,17.3,24.3,31.2,31.6c5.5,2.9,10.6,4.8,14.7,6L126.2,648z"/>
	<path class="st0" d="M260.5,403.8c-2.4-2.4-6.4-2.4-8.9,0l-13.3,13.3L225,403.8c-2.4-2.4-6.4-2.4-8.9,0c-2.4,2.4-2.4,6.4,0,8.9
		l13.3,13.3l-13.3,13.3c-2.4,2.4-2.4,6.4,0,8.9c1.2,1.2,2.8,1.8,4.4,1.8c1.6,0,3.2-0.6,4.4-1.8l7.1-7.1v230.7c0,3.5,2.8,6.3,6.3,6.3
		s6.3-2.8,6.3-6.3V441.1l7.1,7.1c1.2,1.2,2.8,1.8,4.4,1.8c1.6,0,3.2-0.6,4.4-1.8c2.4-2.4,2.4-6.4,0-8.9L247.2,426l13.3-13.3
		C263,410.2,263,406.2,260.5,403.8z"/>
	<path class="st0" d="M366.2,523.1l-18.3,11.6l-18.2-127.4l0,0c0-0.2-0.1-0.3-0.1-0.5c0-0.1,0-0.1,0-0.2s-0.1-0.3-0.1-0.4
		s0-0.1-0.1-0.2c0-0.1-0.1-0.2-0.1-0.3c0-0.1-0.1-0.2-0.1-0.3c0,0,0-0.1-0.1-0.1c-0.3-0.5-0.6-1-0.9-1.4l-0.1-0.1
		c-0.1-0.1-0.2-0.2-0.3-0.3c-0.1-0.1-0.2-0.2-0.4-0.3l-0.1-0.1c-0.1-0.1-0.3-0.2-0.4-0.3c0,0,0,0-0.1-0.1s-0.2-0.1-0.4-0.2
		c-0.1,0-0.1-0.1-0.2-0.1s-0.2-0.1-0.3-0.1c-0.1,0-0.2-0.1-0.3-0.1c-0.1,0-0.1,0-0.2-0.1c-0.1,0-0.3-0.1-0.4-0.1s-0.1,0-0.2,0
		c-0.2,0-0.3-0.1-0.5-0.1l0,0c-0.1,0-0.1,0-0.2,0s-0.3,0-0.4,0s-0.2,0-0.3,0c-0.1,0-0.2,0-0.3,0c-0.1,0-0.3,0-0.4,0s-0.1,0-0.1,0
		l0,0c-0.2,0-0.3,0.1-0.5,0.1H322c-0.1,0-0.3,0.1-0.4,0.1s-0.1,0-0.2,0.1c-0.1,0-0.2,0.1-0.3,0.1c-0.1,0-0.2,0.1-0.3,0.1
		c-0.1,0-0.1,0.1-0.2,0.1c-0.1,0.1-0.2,0.1-0.4,0.2c0,0-0.1,0-0.1,0.1c-0.1,0.1-0.3,0.2-0.4,0.3l-0.1,0.1c-0.1,0.1-0.2,0.2-0.3,0.3
		c-0.1,0.1-0.2,0.2-0.3,0.3l-0.1,0.1c-0.4,0.4-0.7,0.9-0.9,1.4c0,0,0,0.1-0.1,0.1c0,0.1-0.1,0.2-0.1,0.3c0,0.1-0.1,0.2-0.1,0.3
		c0,0.1,0,0.1-0.1,0.2c0,0.1-0.1,0.3-0.1,0.4s0,0.1,0,0.2c0,0.2-0.1,0.3-0.1,0.5l0,0L299,534.7l-18.3-11.6c-2.9-1.9-6.8-1-8.6,1.9
		c-1.9,2.9-1,6.8,1.9,8.6l23.1,14.7l-17.6,122.6c-0.5,3.4,1.9,6.6,5.3,7.1c0.3,0,0.6,0.1,0.9,0.1c3.1,0,5.7-2.3,6.2-5.4l16.8-117
		l11.4,7.3c0.1,0.1,0.2,0.1,0.4,0.2h0.1c0.2,0.1,0.4,0.2,0.6,0.3h0.1c0.2,0.1,0.4,0.2,0.7,0.2c0,0,0,0,0.1,0
		c0.2,0.1,0.5,0.1,0.7,0.1c0,0,0,0,0.1,0c0.2,0,0.5,0,0.7,0l0,0l0,0c0.2,0,0.5,0,0.7,0c0,0,0,0,0.1,0c0.2,0,0.5-0.1,0.7-0.1
		c0,0,0,0,0.1,0c0.2-0.1,0.5-0.1,0.7-0.2h0.1c0.2-0.1,0.4-0.2,0.6-0.3c0,0,0,0,0.1,0c0.1-0.1,0.2-0.1,0.4-0.2l11.4-7.3l16.8,117
		c0.4,3.1,3.1,5.4,6.2,5.4c0.3,0,0.6,0,0.9-0.1c3.4-0.5,5.8-3.7,5.3-7.1l-17.6-122.6l23.1-14.7c2.9-1.9,3.8-5.7,1.9-8.6
		C372.9,522.1,369.1,521.2,366.2,523.1z M323.4,550.3l-12.8-8.2l12.8-89.7l12.8,89.7L323.4,550.3z"/>
	<path class="st0" d="M708.2,523.1l-18.3,11.6l-18.2-127.4l0,0c0-0.2-0.1-0.3-0.1-0.5c0-0.1,0-0.1,0-0.2s-0.1-0.3-0.1-0.4
		s0-0.1-0.1-0.2c0-0.1-0.1-0.2-0.1-0.3c0-0.1-0.1-0.2-0.1-0.3l-0.1-0.1c-0.1-0.1-0.1-0.3-0.2-0.4l0,0c-0.1-0.2-0.2-0.3-0.3-0.5l0,0
		c-0.1-0.2-0.2-0.3-0.4-0.4c-0.1-0.1-0.1-0.1-0.2-0.2c-0.1-0.1-0.1-0.1-0.2-0.2c-0.1-0.1-0.3-0.3-0.5-0.4l0,0
		c-0.2-0.1-0.3-0.2-0.5-0.3l0,0c-0.1-0.1-0.3-0.2-0.4-0.2c0,0-0.1,0-0.1-0.1c-0.1,0-0.2-0.1-0.3-0.1s-0.2-0.1-0.3-0.1
		s-0.1,0-0.2-0.1c-0.1,0-0.3-0.1-0.4-0.1c-0.1,0-0.1,0-0.2,0c-0.1,0-0.3-0.1-0.5-0.1l0,0c-0.1,0-0.1,0-0.2,0c-0.1,0-0.3,0-0.4,0
		c-0.1,0-0.2,0-0.3,0s-0.2,0-0.3,0s-0.3,0-0.4,0c-0.1,0-0.1,0-0.2,0l0,0c-0.2,0-0.3,0.1-0.5,0.1c-0.1,0-0.1,0-0.2,0
		c-0.1,0-0.3,0.1-0.4,0.1c-0.1,0-0.1,0-0.2,0.1c-0.1,0-0.2,0.1-0.3,0.1s-0.2,0.1-0.3,0.1c0,0-0.1,0-0.1,0.1
		c-0.1,0.1-0.3,0.1-0.4,0.2l0,0c-0.2,0.1-0.3,0.2-0.5,0.3l0,0c-0.2,0.1-0.3,0.2-0.4,0.4c-0.1,0.1-0.1,0.1-0.2,0.2
		c-0.1,0.1-0.2,0.1-0.2,0.2c-0.1,0.1-0.2,0.3-0.4,0.4l0,0c-0.1,0.2-0.2,0.3-0.3,0.5l0,0c-0.1,0.1-0.1,0.3-0.2,0.4l-0.1,0.1
		c0,0.1-0.1,0.2-0.1,0.3c0,0.1-0.1,0.2-0.1,0.3c0,0.1,0,0.1-0.1,0.2c0,0.1-0.1,0.3-0.1,0.4s0,0.1,0,0.2c0,0.2-0.1,0.3-0.1,0.5l0,0
		l-18.2,127.4l-18.3-11.6c-2.9-1.9-6.8-1-8.6,1.9c-1.9,2.9-1,6.8,1.9,8.6l23.1,14.7l-17.6,122.6c-0.5,3.4,1.9,6.6,5.3,7.1
		c0.3,0,0.6,0.1,0.9,0.1c3.1,0,5.7-2.3,6.2-5.4l16.8-117l11.4,7.3c0.1,0.1,0.2,0.1,0.4,0.2h0.1c0.2,0.1,0.4,0.2,0.6,0.3h0.1
		c0.2,0.1,0.4,0.2,0.7,0.2c0,0,0,0,0.1,0c0.2,0.1,0.5,0.1,0.7,0.1c0,0,0,0,0.1,0c0.2,0,0.5,0,0.7,0l0,0l0,0c0.2,0,0.5,0,0.7,0
		c0,0,0,0,0.1,0c0.2,0,0.5-0.1,0.7-0.1c0,0,0,0,0.1,0c0.2-0.1,0.5-0.1,0.7-0.2h0.1c0.2-0.1,0.4-0.2,0.6-0.3c0,0,0,0,0.1,0
		c0.1-0.1,0.2-0.1,0.4-0.2l11.4-7.3l16.8,117c0.4,3.1,3.1,5.4,6.2,5.4c0.3,0,0.6,0,0.9-0.1c3.4-0.5,5.8-3.7,5.3-7.1l-17.6-122.6
		l23.1-14.7c2.9-1.9,3.8-5.7,1.9-8.6C715,522.1,711.1,521.2,708.2,523.1z M665.5,550.3l-12.8-8.2l12.8-89.7l12.8,89.7L665.5,550.3z"
		/>
	<path class="st0" d="M465.3,401.4c-3.5,0-6.3,2.8-6.3,6.3v51.1l-41.4-54.9c-1.6-2.2-4.4-3-7-2.2c-2.6,0.9-4.3,3.2-4.3,5.9v263.6
		c0,3.5,2.8,6.3,6.3,6.3s6.3-2.8,6.3-6.3V426.4l40.1,53.2v192.7c0,3.5,2.8,6.3,6.3,6.3s6.3-2.8,6.3-6.3V407.7
		C471.5,404.2,468.7,401.4,465.3,401.4z"/>
	<path class="st0" d="M552,420.7l31.8,35.5c2.3,2.6,6.3,2.8,8.8,0.5c2.6-2.3,2.8-6.3,0.5-8.8L553.9,404c-1.6-1.8-4-2.5-6.3-1.9
		s-4,2.4-4.5,4.7c-0.1,0.3-7.5,33.8-33.6,55.8c-1.7,1.5-2.5,3.7-2.1,6L546.6,673l0,0c0,0.1,0,0.2,0.1,0.3c0,0.1,0,0.2,0.1,0.3
		c0,0.1,0.1,0.2,0.1,0.3s0.1,0.2,0.1,0.3s0.1,0.1,0.1,0.2c0.1,0.1,0.1,0.2,0.2,0.3c0,0.1,0.1,0.1,0.1,0.2c0.1,0.1,0.1,0.2,0.2,0.3
		c0,0.1,0.1,0.1,0.1,0.1c0.1,0.1,0.2,0.2,0.2,0.3l0.1,0.1c0.1,0.1,0.2,0.2,0.3,0.3l0.1,0.1c0.1,0.1,0.2,0.2,0.3,0.3s0.2,0.2,0.3,0.3
		s0.2,0.1,0.3,0.2c0.1,0.1,0.2,0.1,0.3,0.2c0.1,0,0.2,0.1,0.2,0.1c0.1,0,0.2,0.1,0.3,0.1s0.2,0.1,0.3,0.1s0.2,0.1,0.2,0.1
		c0.1,0,0.2,0.1,0.3,0.1s0.1,0,0.2,0.1c0.2,0,0.3,0.1,0.5,0.1h0.1l0,0c0.2,0,0.4,0.1,0.6,0.1l0,0c0.2,0,0.4,0,0.6,0l0,0l0,0
		c0.2,0,0.4,0,0.6,0l0,0c0.2,0,0.4,0,0.6-0.1l0,0h0.1c0.2,0,0.3-0.1,0.5-0.1c0.1,0,0.1,0,0.2-0.1c0.1,0,0.2-0.1,0.3-0.1
		s0.2-0.1,0.2-0.1c0.1,0,0.2-0.1,0.3-0.1s0.2-0.1,0.3-0.1s0.2-0.1,0.2-0.1c0.1-0.1,0.2-0.1,0.3-0.2c0.1-0.1,0.2-0.1,0.3-0.2
		c0.1-0.1,0.2-0.2,0.3-0.3s0.2-0.2,0.3-0.3l0.1-0.1c0.1-0.1,0.2-0.2,0.3-0.3l0.1-0.1c0.1-0.1,0.2-0.2,0.2-0.3l0.1-0.1
		c0.1-0.1,0.1-0.2,0.2-0.3c0-0.1,0.1-0.1,0.1-0.2c0.1-0.1,0.1-0.2,0.2-0.3c0-0.1,0.1-0.1,0.1-0.2c0-0.1,0.1-0.2,0.1-0.3
		s0.1-0.2,0.1-0.3s0-0.2,0.1-0.3c0-0.1,0.1-0.2,0.1-0.3l0,0l34.7-180.5c0.7-3.4-1.6-6.7-5-7.3c-3.4-0.7-6.7,1.6-7.3,5l-28.5,148.5
		l-32.4-168.8C538.3,453.5,547.6,433.1,552,420.7z"/>
	<path class="st0" d="M1488.6,523.1l-18.3,11.6l-18.2-127.4l0,0c0-0.2-0.1-0.3-0.1-0.4s0-0.1,0-0.2s-0.1-0.3-0.1-0.4s0-0.2-0.1-0.2
		c0-0.1-0.1-0.2-0.1-0.3c0-0.1-0.1-0.2-0.1-0.3c0,0,0-0.1-0.1-0.1c-0.1-0.1-0.1-0.3-0.2-0.4l0,0c-0.2-0.3-0.4-0.7-0.7-1
		c-0.1-0.1-0.1-0.1-0.2-0.2s-0.2-0.2-0.2-0.2c-0.1-0.1-0.3-0.2-0.4-0.3c0,0,0,0-0.1-0.1s-0.3-0.2-0.4-0.3c0,0-0.1,0-0.1-0.1
		c-0.1-0.1-0.2-0.1-0.3-0.2c-0.1,0-0.1-0.1-0.2-0.1s-0.2-0.1-0.2-0.1c-0.1,0-0.2-0.1-0.3-0.1h-0.1c-0.2-0.1-0.3-0.1-0.5-0.1h-0.1
		c-0.2,0-0.3-0.1-0.5-0.1l0,0h-0.1c-0.2,0-0.3,0-0.5,0c-0.1,0-0.2,0-0.3,0c-0.1,0-0.2,0-0.3,0c-0.1,0-0.3,0-0.4,0s-0.1,0-0.2,0l0,0
		c-0.2,0-0.3,0.1-0.5,0.1h-0.1c-0.1,0-0.3,0.1-0.4,0.1s-0.1,0-0.2,0.1c-0.1,0-0.2,0.1-0.3,0.1c-0.1,0-0.2,0.1-0.3,0.1
		c-0.1,0-0.1,0.1-0.2,0.1c-0.1,0.1-0.2,0.1-0.3,0.2l-0.1,0.1c-0.1,0.1-0.2,0.2-0.4,0.2c-0.1,0.1-0.1,0.1-0.2,0.2s-0.2,0.1-0.3,0.2
		c-0.1,0.1-0.3,0.3-0.4,0.4l0,0c-0.4,0.4-0.7,0.9-1,1.4v0.1c-0.1,0.1-0.1,0.2-0.1,0.3c0,0.1-0.1,0.2-0.1,0.2c0,0.1,0,0.2-0.1,0.2
		c0,0.1-0.1,0.2-0.1,0.4c0,0.1,0,0.1,0,0.2s-0.1,0.3-0.1,0.4l0,0l-18.2,127.4l-18.3-11.6c-2.9-1.9-6.8-1-8.6,1.9
		c-1.9,2.9-1,6.8,1.9,8.6l23.1,14.7l-17.6,122.6c-0.5,3.4,1.9,6.6,5.3,7.1c0.3,0,0.6,0.1,0.9,0.1c3.1,0,5.7-2.3,6.2-5.4l16.8-117
		l11.4,7.3c0.1,0.1,0.2,0.1,0.4,0.2c0,0,0,0,0.1,0c0.2,0.1,0.4,0.2,0.6,0.3h0.1c0.2,0.1,0.4,0.2,0.7,0.2c0,0,0,0,0.1,0
		c0.2,0.1,0.5,0.1,0.7,0.1c0,0,0,0,0.1,0c0.2,0,0.5,0,0.7,0l0,0l0,0c0.2,0,0.5,0,0.7,0c0,0,0,0,0.1,0c0.2,0,0.5-0.1,0.7-0.1
		c0,0,0,0,0.1,0c0.2-0.1,0.5-0.1,0.7-0.2h0.1c0.2-0.1,0.4-0.2,0.6-0.3c0,0,0,0,0.1,0c0.1-0.1,0.3-0.1,0.4-0.2l11.4-7.3l16.8,117
		c0.4,3.1,3.1,5.4,6.2,5.4c0.3,0,0.6,0,0.9-0.1c3.4-0.5,5.8-3.7,5.3-7.1l-17.6-122.6l23.1-14.7c2.9-1.9,3.8-5.7,1.9-8.6
		C1495.4,522.1,1491.5,521.2,1488.6,523.1z M1445.9,550.3l-12.8-8.2l12.8-89.7l12.8,89.7L1445.9,550.3z"/>
	<path class="st0" d="M1156.2,401.4c-3.5,0-6.3,2.8-6.3,6.3v51.1l-41.4-54.9c-1.6-2.2-4.4-3-7-2.2c-2.6,0.9-4.3,3.2-4.3,5.9v263.6
		c0,3.5,2.8,6.3,6.3,6.3s6.3-2.8,6.3-6.3V426.4l40.1,53.2v192.7c0,3.5,2.8,6.3,6.3,6.3s6.3-2.8,6.3-6.3V407.7
		C1162.4,404.2,1159.6,401.4,1156.2,401.4z"/>
	<path class="st0" d="M1582.9,401.4c-3.5,0-6.3,2.8-6.3,6.3v51.1l-41.4-54.9c-1.6-2.2-4.4-3-7-2.2c-2.6,0.9-4.3,3.2-4.3,5.9v263.6
		c0,3.5,2.8,6.3,6.3,6.3s6.3-2.8,6.3-6.3V426.4l40.1,53.2v192.7c0,3.5,2.8,6.3,6.3,6.3s6.3-2.8,6.3-6.3V407.7
		C1589.2,404.2,1586.4,401.4,1582.9,401.4z"/>
	<path class="st0" d="M1064.2,451c-26.9-16.4-38-44.7-38.1-45.1c0-0.1-0.1-0.1-0.1-0.2s-0.1-0.2-0.1-0.3c0-0.1-0.1-0.2-0.1-0.3
		c0-0.1-0.1-0.2-0.1-0.3c-0.1-0.1-0.1-0.2-0.2-0.3c-0.1-0.1-0.1-0.2-0.2-0.2c-0.1-0.1-0.1-0.2-0.2-0.3c-0.1-0.1-0.1-0.1-0.2-0.2
		s-0.1-0.1-0.2-0.2s-0.1-0.1-0.2-0.2s-0.1-0.1-0.2-0.2s-0.2-0.1-0.3-0.2c-0.1-0.1-0.2-0.1-0.2-0.2c-0.1-0.1-0.2-0.1-0.3-0.2
		s-0.2-0.1-0.3-0.1s-0.2-0.1-0.3-0.1s-0.2-0.1-0.3-0.1s-0.1-0.1-0.2-0.1h-0.1c-0.1,0-0.2-0.1-0.3-0.1s-0.2-0.1-0.3-0.1
		s-0.2,0-0.3-0.1c-0.1,0-0.2,0-0.3-0.1c-0.1,0-0.2,0-0.3,0s-0.2,0-0.3,0s-0.2,0-0.3,0s-0.2,0-0.3,0s-0.2,0-0.3,0s-0.2,0-0.3,0
		s-0.2,0-0.3,0.1c-0.1,0-0.2,0-0.3,0.1c-0.1,0-0.2,0-0.2,0.1c-0.1,0-0.2,0.1-0.4,0.1h-0.1c-0.1,0-0.1,0-0.2,0.1
		c-0.1,0-0.2,0.1-0.3,0.1s-0.2,0.1-0.3,0.1c-0.1,0.1-0.2,0.1-0.3,0.2s-0.2,0.1-0.3,0.2s-0.2,0.1-0.2,0.2c-0.1,0.1-0.2,0.1-0.2,0.2
		c-0.1,0.1-0.2,0.1-0.2,0.2c-0.1,0.1-0.1,0.1-0.2,0.2c-0.1,0.1-0.2,0.2-0.2,0.2c-0.1,0.1-0.1,0.1-0.2,0.2c-0.1,0.1-0.1,0.2-0.2,0.3
		c-0.1,0.1-0.1,0.1-0.2,0.2c-0.1,0.1-0.1,0.2-0.2,0.3c-0.1,0.1-0.1,0.2-0.1,0.3c0,0.1-0.1,0.2-0.1,0.3c0,0.1-0.1,0.2-0.1,0.3
		c0,0.1-0.1,0.1-0.1,0.2c-0.1,0.3-11,28.6-38.1,45.1c-2.2,1.4-3.4,4-2.9,6.5l40.5,213.4c-0.6,3.4,1.6,6.6,5,7.2
		c0.4,0.1,0.8,0.1,1.2,0.1c0.1,0,0.1,0,0.2,0c0.1,0,0.1,0,0.2,0c0.4,0,0.8,0,1.2-0.1c3.4-0.6,5.6-3.9,5-7.2l40.5-213.4
		C1067.6,454.9,1066.5,452.3,1064.2,451z M1020.3,637.3l-33.8-178c17-11.5,27.8-26.6,33.8-37.1c6,10.4,16.7,25.6,33.8,37.1
		L1020.3,637.3z"/>
	<path class="st0" d="M907.6,420.7l31.8,35.5c2.3,2.6,6.3,2.8,8.8,0.5c2.6-2.3,2.8-6.3,0.5-8.8L909.5,404c-1.6-1.8-4-2.5-6.3-1.9
		s-4,2.4-4.5,4.8c-0.1,0.3-7.4,33.6-33.6,55.8c-1.7,1.5-2.5,3.7-2.1,6L902.3,673l0,0c0,0.1,0,0.2,0.1,0.3c0,0.1,0,0.2,0.1,0.3
		c0,0.1,0.1,0.2,0.1,0.3s0.1,0.2,0.1,0.3s0.1,0.1,0.1,0.2c0.1,0.1,0.1,0.2,0.2,0.3c0,0.1,0.1,0.1,0.1,0.2c0.1,0.1,0.1,0.2,0.2,0.3
		c0,0.1,0.1,0.1,0.1,0.1c0.1,0.1,0.2,0.2,0.2,0.3l0.1,0.1c0.1,0.1,0.2,0.2,0.3,0.3l0.1,0.1c0.1,0.1,0.2,0.2,0.3,0.3s0.2,0.2,0.3,0.3
		s0.2,0.1,0.3,0.2c0.1,0.1,0.2,0.1,0.3,0.2c0.1,0,0.2,0.1,0.2,0.1c0.1,0,0.2,0.1,0.3,0.1s0.2,0.1,0.3,0.1s0.2,0.1,0.2,0.1
		c0.1,0,0.2,0.1,0.3,0.1s0.1,0,0.2,0.1c0.2,0,0.3,0.1,0.5,0.1h0.1l0,0c0.2,0,0.4,0.1,0.6,0.1l0,0c0.2,0,0.4,0,0.6,0l0,0l0,0
		c0.2,0,0.4,0,0.6,0l0,0c0.2,0,0.4,0,0.6-0.1l0,0h0.1c0.2,0,0.3-0.1,0.5-0.1c0.1,0,0.1,0,0.2-0.1c0.1,0,0.2-0.1,0.3-0.1
		s0.2-0.1,0.2-0.1c0.1,0,0.2-0.1,0.3-0.1s0.2-0.1,0.3-0.1s0.2-0.1,0.2-0.1c0.1-0.1,0.2-0.1,0.3-0.2c0.1-0.1,0.2-0.1,0.3-0.2
		c0.1-0.1,0.2-0.2,0.3-0.3s0.2-0.2,0.3-0.3l0.1-0.1c0.1-0.1,0.2-0.2,0.3-0.3l0.1-0.1c0.1-0.1,0.2-0.2,0.2-0.3l0.1-0.1
		c0.1-0.1,0.1-0.2,0.2-0.3c0-0.1,0.1-0.1,0.1-0.2c0.1-0.1,0.1-0.2,0.2-0.3c0-0.1,0.1-0.1,0.1-0.2c0-0.1,0.1-0.2,0.1-0.3
		s0.1-0.2,0.1-0.3s0-0.2,0.1-0.3c0-0.1,0.1-0.2,0.1-0.3l0,0l34.7-180.5c0.7-3.4-1.6-6.7-5-7.3c-3.4-0.7-6.7,1.6-7.3,5l-28.5,148.5
		L876,469.8C893.9,453.5,903.3,433.1,907.6,420.7z"/>
	<path class="st0" d="M1296.8,460.2c0-0.1,0-0.2,0-0.2c0-0.1-0.1-0.2-0.1-0.3c0-0.1,0-0.2-0.1-0.3c0-0.1-0.1-0.2-0.1-0.3
		c0-0.1-0.1-0.2-0.1-0.3c-0.1-0.2-0.2-0.4-0.3-0.6l-0.1-0.1c-0.1-0.1-0.2-0.3-0.2-0.4l0,0c0-0.1-0.1-0.1-0.1-0.2
		c-0.1-0.1-0.2-0.2-0.2-0.3c-0.1-0.1-0.1-0.1-0.2-0.2s-0.1-0.2-0.2-0.2c-0.1-0.1-0.2-0.1-0.2-0.2c-0.1-0.1-0.1-0.1-0.2-0.2
		s-0.2-0.1-0.2-0.2c-0.1-0.1-0.2-0.1-0.2-0.2c-0.1-0.1-0.2-0.1-0.3-0.2c-0.1-0.1-0.2-0.1-0.3-0.2c-0.1,0-0.2-0.1-0.3-0.1
		c-0.1,0-0.2-0.1-0.3-0.1c-0.1,0-0.2-0.1-0.3-0.1c-0.1,0-0.2-0.1-0.3-0.1c-0.1,0-0.2-0.1-0.3-0.1c-0.1,0-0.2,0-0.2-0.1l0,0
		c-0.1,0-0.3,0-0.4-0.1c-0.1,0-0.1,0-0.2,0c-0.2,0-0.4,0-0.6,0c-0.1,0-0.1,0-0.2,0s-0.3,0-0.4,0s-0.1,0-0.2,0c-0.2,0-0.3,0-0.5,0.1
		c0,0,0,0-0.1,0c-0.7,0.1-1.4,0.4-2.1,0.8c0,0-0.1,0-0.1,0.1l0,0c-18.1,11.9-37.4,13.7-57.4,5.2c-9.2-3.9-16.5-9.2-21-12.9
		l30.7-28.6c0.4,1.3,0.9,2.7,1.6,4.2c3.6,8.2,11.6,19.2,29.1,25c3.3,1.1,6.8-0.7,7.9-4s-0.7-6.8-4-7.9
		c-24.7-8.2-24.2-28.7-24.1-29.5c0.1-2.5-1.3-4.9-3.6-6c-2.3-1.1-5-0.6-6.9,1.1l-44.2,41.1c-1.2,1.1-1.9,2.7-2,4.4
		c-0.1,1.7,0.6,3.3,1.7,4.5c0.5,0.5,11.8,12.2,29.5,19.8c10,4.3,20,6.4,29.8,6.4c9.3,0,18.5-1.9,27.4-5.8l-36.9,171.5L1211,502.7
		c-0.8-3.4-4.2-5.4-7.5-4.6c-3.4,0.8-5.4,4.2-4.6,7.5l40.2,168.7v0.1c0,0.1,0.1,0.2,0.1,0.3s0.1,0.2,0.1,0.3s0.1,0.2,0.1,0.2
		c0.1,0.1,0.1,0.3,0.2,0.4c0,0,0,0.1,0.1,0.1c0.2,0.3,0.4,0.7,0.6,1c0,0,0,0,0,0.1c0.1,0.1,0.2,0.2,0.3,0.4l0.1,0.1
		c0.1,0.1,0.2,0.2,0.3,0.2c0.1,0.1,0.1,0.1,0.2,0.2c0.1,0.1,0.2,0.1,0.2,0.2c0.1,0.1,0.1,0.1,0.2,0.2c0.1,0.1,0.2,0.1,0.3,0.2
		c0.1,0,0.2,0.1,0.2,0.1c0.1,0.1,0.3,0.2,0.4,0.2s0.1,0,0.2,0.1s0.3,0.1,0.4,0.2c0.1,0,0.1,0,0.2,0s0.3,0.1,0.4,0.1c0,0,0,0,0.1,0
		h0.1c0.2,0,0.3,0.1,0.5,0.1h0.1c0.2,0,0.4,0,0.6,0l0,0l0,0c0.2,0,0.4,0,0.7,0h0.1c0.2,0,0.4-0.1,0.6-0.1c0,0,0,0,0.1,0l0,0
		c0.2,0,0.4-0.1,0.6-0.2l0,0c0.2-0.1,0.4-0.1,0.5-0.2c0.1,0,0.1-0.1,0.2-0.1c0.1-0.1,0.2-0.1,0.3-0.2c0.1,0,0.2-0.1,0.2-0.1
		c0.1-0.1,0.2-0.1,0.2-0.2c0.1-0.1,0.1-0.1,0.2-0.2c0.1-0.1,0.2-0.1,0.2-0.2c0.1-0.1,0.1-0.1,0.2-0.2c0.1-0.1,0.2-0.2,0.3-0.3
		l0.1-0.1c0.3-0.3,0.5-0.6,0.7-0.9l0,0c0.1-0.2,0.2-0.3,0.3-0.5c0,0,0-0.1,0.1-0.1c0.1-0.1,0.1-0.2,0.2-0.4c0-0.1,0.1-0.1,0.1-0.2
		c0-0.1,0.1-0.2,0.1-0.3s0.1-0.2,0.1-0.3v-0.1l45.6-211.8l0,0c0-0.1,0-0.3,0.1-0.4c0-0.1,0-0.1,0-0.2s0-0.2,0-0.3c0-0.2,0-0.5,0-0.7
		c0-0.1,0-0.1,0-0.2C1296.8,460.4,1296.8,460.3,1296.8,460.2z"/>
	<path class="st0" d="M1394.5,407.5c0-3.5-2.8-6.3-6.3-6.3s-6.3,2.8-6.3,6.3v31.9l-29.5-15.7l0,0l-38.8-20.6c-1.9-1-4.3-1-6.2,0.2
		c-1.9,1.1-3,3.2-3,5.4v32.7c0,3.5,2.8,6.3,6.3,6.3s6.3-2.8,6.3-6.3v-22.3l26.3,13.9v239.4c0,3.5,2.8,6.3,6.3,6.3s6.3-2.8,6.3-6.3
		V439.7l29.6,15.7c0.9,0.5,1.9,0.7,2.9,0.7c1.1,0,2.2-0.3,3.2-0.9c1.9-1.1,3-3.2,3-5.4v-42.3H1394.5z"/>
	<path class="st0" d="M1699.7,401.3c-3.5,0-6.3,2.8-6.3,6.3v31.9l-29.5-15.7l0,0l-38.8-20.6c-1.9-1-4.3-1-6.2,0.2
		c-1.9,1.1-3,3.2-3,5.4v32.7c0,3.5,2.8,6.3,6.3,6.3s6.3-2.8,6.3-6.3v-22.3l26.3,13.9v239.4c0,3.5,2.8,6.3,6.3,6.3s6.3-2.8,6.3-6.3
		V439.7l29.6,15.7c0.9,0.5,1.9,0.7,2.9,0.7c1.1,0,2.2-0.3,3.2-0.9c1.9-1.1,3-3.2,3-5.4v-42.3C1706,404.1,1703.2,401.3,1699.7,401.3z
		"/>
	<path class="st0" d="M1801.3,486c-3.4-0.7-6.7,1.5-7.4,4.9l-29.5,148.3l-31.8-165.4h34.8c3.5,0,6.3-2.8,6.3-6.3s-2.8-6.3-6.3-6.3
		h-27.1c12.5-14.4,19.6-30.1,23.3-40.4l27.3,30.9c2.3,2.6,6.2,2.8,8.8,0.5c2.6-2.3,2.8-6.2,0.5-8.8l-34.8-39.3
		c-1.6-1.8-4-2.5-6.3-1.9s-4,2.4-4.5,4.7c-0.1,0.3-7.5,33.8-33.6,55.8c-0.1,0.1-0.2,0.2-0.4,0.3l-0.1,0.1c-0.1,0.1-0.2,0.2-0.3,0.3
		l-0.1,0.1c-0.1,0.1-0.2,0.3-0.3,0.4c0,0,0,0.1-0.1,0.1c-0.1,0.1-0.1,0.2-0.2,0.4c0,0.1-0.1,0.1-0.1,0.2c-0.1,0.1-0.2,0.3-0.2,0.4
		c0,0,0,0.1-0.1,0.1c0,0.1-0.1,0.2-0.1,0.4c0,0.1,0,0.1-0.1,0.2c0,0.2-0.1,0.3-0.1,0.5v0.1c0,0.1-0.1,0.3-0.1,0.5v0.1
		c0,0.2,0,0.4,0,0.6l0,0c0,0,0,0,0,0.1c0,0.2,0,0.3,0,0.5v0.1c0,0.2,0,0.3,0.1,0.5v0.1l0,0l39.3,204.2c0.6,2.9,3.1,5.1,6.1,5.1l0,0
		c3,0,5.6-2.1,6.1-5l35.7-179.7C1806.9,489.9,1804.7,486.6,1801.3,486z"/>
</g>
</svg>
