<?xml version="1.0" encoding="utf-8"?>
<!-- Generator: Adobe Illustrator 25.2.1, SVG Export Plug-In . SVG Version: 6.00 Build 0)  -->
<svg version="1.1" id="Layer_1" xmlns="http://www.w3.org/2000/svg" xmlns:xlink="http://www.w3.org/1999/xlink" x="0px" y="0px"
	 viewBox="0 0 400 400" style="enable-background:new 0 0 400 400;" xml:space="preserve">
<style type="text/css">
	.st0{fill:#623CEA;}
</style>
<path class="st0" d="M0,0v200v200h400V0H0z M123,123.5c11.9-34.6,41.9-58.1,74.3-58.1c34.6,0,70.7,30.3,75.1,88.8
	c-5.4-1.8-13.4-4.3-18-5.4c-1.1-19.1-17.3-66.8-55.6-66c-13.7,0.4-33.9,6.9-44.4,20.2c-12.6,15.5-19.8,34.3-21.3,55.9
	c-2.2,28.9,4,55.6,18.8,80.1c0.7-0.4,1.8-0.4,2.5-0.4h0.7c10.8,0,19.8,8.7,20.2,19.5c0.4,11.2-8.3,20.6-19.5,20.9h-0.7
	c-10.8,0-19.8-8.7-20.2-19.5c-0.4-4,0.7-7.9,2.5-10.5C117.2,214.1,106.4,169.7,123,123.5z M132,333.2c-26.7,0-50.9-11.2-62.8-29.2
	c-15.9-24.2-21.3-75.4,31-113.3c1.1,5.8,3.3,13.7,4.7,18.4c-6.9,5-17.7,15.2-24.5,28.9c-9.7,19.1-8.7,38.2,2.9,55.9
	c7.9,11.9,20.6,19.1,36.8,21.3c19.8,2.5,39.7-1.1,58.8-11.2c28.1-14.8,46.9-32.5,59.2-56.7c-3.2-3.2-5.4-7.9-5.8-13.4
	c-0.4-11.2,8.3-20.6,19.5-20.9h0.7c10.8,0,19.8,8.7,20.2,19.5c0.4,10.8-7.6,19.8-18,20.9c-19.8,40.8-54.8,68.2-101,77.2
	C146.4,332.4,139.2,333.2,132,333.2z M335.5,296.3c-9.7,19.1-35.4,38.2-70,38.2c-15.2,0-31-4-46.5-11.2c5.1-3.6,12.3-9.4,16.2-13
	c7.2,3.2,20.9,7.6,35.4,7.6c22.4,0,39.3-10.5,49.4-29.6c6.5-12.6,6.9-27.4,0.7-42.6c-7.2-18.8-20.2-34.3-38.2-46.2
	c-23.5-15.5-49.4-23.5-76.9-23.5h-6.5c-2.9,6.9-9.7,11.9-17.7,12.3h-0.7c-10.8,0-19.8-8.7-20.2-19.5c-0.4-11.2,8.3-20.6,19.5-20.9
	h0.7c7.6,0,14.4,4.3,17.7,10.8h5.8c46.2,0,86.6,17.7,114,49.8C345.3,239.3,346,275.4,335.5,296.3z"/>
</svg>
